<svg width="60" height="46" viewBox="0 0 60 46" fill="none" xmlns="http://www.w3.org/2000/svg">
<path d="M8.29507 0L0 7.67118L9.32096 16.2911V23.9623L13.4831 27.7843L30.044 12.4691L25.9111 8.61992H17.616L8.29507 0ZM43.8788 5.34001V9.40601C46.81 9.40601 49.3014 11.6559 49.3014 14.4207C49.3014 17.1856 46.81 19.4355 43.8788 19.4355V23.5015C50.4446 23.5015 55.6033 28.462 55.6033 34.5339V46H60V34.5068C60 28.4891 56.2482 23.2846 50.767 20.8721C52.5843 19.2186 53.6981 16.9417 53.6981 14.4207C53.6981 9.40601 49.3014 5.34001 43.8788 5.34001ZM29.0181 19.1644L20.723 26.8356L35.232 40.2534L37.3131 38.3288L43.5271 44.0754L49.7411 46L47.66 40.2534L41.446 34.5068L43.5271 32.5822L29.0181 19.1644Z" fill="black"/>
</svg>
