<svg width="45" height="45" viewBox="0 0 45 45" fill="none" xmlns="http://www.w3.org/2000/svg">
<path d="M9.74993 0C9.338 0.00164409 9.00451 0.335139 9.00286 0.747069V3.74853C9.00129 4.16272 9.33573 4.49979 9.74993 4.50146H10.497L10.4999 6.24315C9.26977 6.51244 8.11502 6.9968 7.08823 7.65525L5.74934 6.3164L6.27814 5.78612C6.76227 5.30996 6.41506 4.48695 5.73616 4.50146C5.54142 4.50713 5.35637 4.58877 5.22054 4.72852C3.80368 6.1409 2.39198 7.55398 0.974041 8.96925C0.265068 9.67822 1.32854 10.7417 2.03751 10.0327L2.56779 9.50097L3.90665 10.8384C2.85897 12.4717 2.24991 14.4167 2.24991 16.4985C2.24991 22.2886 6.92813 27.0014 12.7514 27.0014C18.5746 27.0014 23.2499 22.2886 23.2499 16.4985C23.2499 14.4165 22.6417 12.4718 21.5946 10.8384L22.932 9.50097L23.4638 10.0327C24.1727 10.7667 25.2593 9.67408 24.5214 8.96925C23.0879 7.53115 21.536 5.9852 20.2807 4.72852C20.1213 4.56241 19.8945 4.47879 19.6654 4.50146C19.0303 4.56439 18.7592 5.34159 19.2172 5.78612L19.7489 6.31784L18.4115 7.65525C17.3837 6.99578 16.2319 6.5121 14.9999 6.24315L14.9984 4.50146H15.7514C16.1656 4.49979 16.5 4.16272 16.4984 3.74853V0.747069C16.4968 0.335139 16.1633 0.00164409 15.7514 0H9.74993ZM35.2499 0C34.8129 0.00850392 34.4999 0.331454 34.4999 0.747069V2.24707C34.4999 2.74691 34.875 2.99789 35.2499 2.99854C35.6248 2.99789 35.9999 2.74682 35.9999 2.24707V0.747069C35.9999 0.331454 35.6869 0.00813541 35.2499 0ZM30.6562 2.46971L31.7196 3.52734C32.4597 4.21548 33.4674 3.17862 32.7831 2.46971L31.7196 1.40624C31.5785 1.2611 31.3963 1.18797 31.1938 1.18798C30.5158 1.18233 30.1881 2.00545 30.6562 2.46971ZM38.7802 1.40626L37.7167 2.46974C37.0325 3.17868 38.0402 4.2155 38.7802 3.52737L39.8437 2.46974C40.3117 2.00548 39.9841 1.18278 39.3061 1.18801C39.1036 1.188 38.9214 1.26113 38.7802 1.40626ZM11.997 4.50146H13.4985L13.4999 6.00144L11.9999 5.99999L11.997 4.50146ZM34.7196 4.7169L28.7182 10.7183C28.2485 11.1909 28.5822 11.9956 29.2485 11.9972H32.2499V13.7799C32.2499 17.5216 30.8908 20.9986 28.3022 24.0001H25.497C24.2488 24.0001 23.2499 25.0136 23.2499 26.2471V28.2671C22.2727 28.8812 21.2367 29.4457 20.1122 29.9708C19.7955 29.1183 18.9728 28.5001 17.9955 28.5001H14.997C13.7488 28.5001 12.7499 29.5136 12.7499 30.7471V38.9986H9.74993V35.25C9.74993 34.0165 8.75248 33.003 7.49554 33.003H4.49699C3.24882 33.003 2.24991 34.0165 2.24991 35.25L2.2485 38.9986C1.01356 38.9986 0 39.996 0 41.253V42.7529C0 44.0011 1.01356 45 2.24708 45H42.7529C43.9865 45 45 44.0011 45 42.7529V41.253C45 39.996 43.9865 38.9986 42.7529 38.9986H41.25L41.2528 21.7471C41.2528 20.5136 40.2569 19.5001 38.9999 19.5001H37.5497C38.0081 17.774 38.2514 15.8765 38.2514 13.7799V11.9972H41.2528C41.917 11.9915 42.2469 11.1894 41.7787 10.7183L35.7816 4.7169C35.6374 4.57488 35.442 4.49721 35.2397 4.50146C35.0449 4.50299 34.8585 4.58027 34.7196 4.7169ZM35.2513 6.312L39.4363 10.497H37.4984C37.0842 10.4987 36.7497 10.8358 36.7513 11.25V13.7797C36.7513 15.9251 36.4827 17.8112 35.991 19.5C34.7464 19.5 33.7498 20.5219 33.7498 21.747V24.186C32.8978 25.3873 31.8876 26.4292 30.7498 27.3486V26.247C30.7498 25.5169 30.4153 24.8699 29.8695 24.4584C32.3887 21.3272 33.7498 17.6716 33.7498 13.7797V11.25C33.7514 10.8335 33.4134 10.4954 32.9969 10.497H31.0648L35.2513 6.312ZM12.7513 7.50289C17.7161 7.50289 21.7498 11.519 21.7498 16.4985C21.7498 21.4779 17.6976 25.5014 12.7513 25.5014C7.805 25.5014 3.74984 21.4779 3.74984 16.4985C3.74984 11.519 7.78651 7.50289 12.7513 7.50289ZM12.7513 9.00287C9.72 9.00287 6.97969 10.8297 5.81967 13.6303C4.65962 16.4309 5.30365 19.6592 7.4471 21.8027C9.59057 23.9461 12.8174 24.5901 15.618 23.4301C18.4186 22.2701 20.2528 19.5298 20.2528 16.4985C20.2513 16.0841 19.9142 15.7498 19.4998 15.7514H13.4984V9.74994C13.497 9.33775 13.1635 9.00434 12.7513 9.00287ZM28.4998 25.4999C28.9049 25.4999 29.2497 25.8185 29.2498 26.247L29.2541 38.9984H24.7541L24.7496 26.247C24.7494 25.8185 25.0975 25.4999 25.4968 25.4999H28.4998ZM33.7542 38.9984H30.7542L30.75 29.2294C31.84 28.4493 32.8557 27.5715 33.7543 26.5722L33.7542 38.9984ZM23.2498 30.0226V31.2735C22.2733 31.5967 21.2702 31.8749 20.2498 32.1202V31.5548C21.3067 31.0818 22.3058 30.5735 23.2498 30.0226ZM23.2498 32.8468L23.2544 38.9991H20.2499V33.6627C21.2638 33.4286 22.2663 33.1557 23.2498 32.8468ZM4.49691 34.5035H7.49545C7.90047 34.5035 8.24984 34.8221 8.24984 35.2506V38.9991H3.74984V35.2506C3.74984 34.8221 4.09773 34.5035 4.49691 34.5035ZM2.24691 40.4991H42.7528C43.1812 40.4991 43.4998 40.8485 43.4998 41.2535V42.7535C43.4998 43.1527 43.1812 43.5006 42.7528 43.5006H2.24691C1.81842 43.5006 1.49984 43.1527 1.49984 42.7535V41.2535C1.49984 40.8485 1.81842 40.4991 2.24691 40.4991Z" fill="black"/>
</svg>
