<svg width="60" height="48" viewBox="0 0 60 48" fill="none" xmlns="http://www.w3.org/2000/svg">
<path d="M56.7148 0H4.28518C2.47344 0 1 1.37037 1 3.05487V30.6383V32.6809V40.8511H23.3804L20.7552 46.5768C20.61 46.8919 20.6453 47.254 20.8469 47.5413C21.0497 47.8275 21.3922 48 21.7593 48H39.2407C39.6077 48 39.9502 47.8275 40.1531 47.5413C40.3546 47.254 40.3899 46.8919 40.2447 46.5768L37.6195 40.8511H60V32.6809V30.6383V3.05487C60 1.37037 58.5265 0 56.7148 0ZM37.5837 45.9574H23.4163L25.7572 40.8511H35.2427L37.5837 45.9574ZM57.8148 38.8085H35.963H25.037H3.18519V32.6809H57.8148V38.8085ZM3.18519 30.6383V3.05487C3.18519 2.49633 3.67814 2.04255 4.28518 2.04255H56.7148C57.3218 2.04255 57.8148 2.49633 57.8148 3.05487V30.6383H3.18519Z" fill="black"/>
<path d="M53.0565 13.7704C51.9221 13.6029 46.1697 12.8713 44.3276 15.0591C43.8547 15.621 43.3872 16.458 42.847 17.4272C41.7578 19.3813 40.1296 22.3401 38.5983 21.9516C37.6249 21.7071 37.6833 20.7695 38.3712 17.8857C38.7075 16.4768 39.0889 14.8806 39.0889 13.3012C39.0889 11.2287 38.1298 9.81396 36.5247 9.51525C34.2559 9.0883 31.6972 11.0434 30.0226 14.4892C29.0095 16.5724 27.9093 17.4066 27.2732 17.2872C26.7495 17.1896 25.9172 16.1721 25.9172 13.8572C25.9172 8.23742 22.5791 4 18.1518 4C17.508 4 16.9491 4.21784 16.5335 4.62998C15.3583 5.79635 15.6394 8.21773 16.065 11.8834C16.5698 16.2294 17.1982 21.6381 15.2051 25.356C14.5855 26.5104 14.1655 26.8576 14.0133 26.9532C13.0168 26.3172 11.9055 21.6756 11.4237 19.6662C11.082 18.2397 10.7866 17.0072 10.4923 16.2826C10.0899 15.2908 9.35233 14.5878 8.3613 14.2516C6.29094 13.5476 3.86014 14.6795 3.59113 14.8106C3.04317 15.0768 2.8393 15.6891 3.13687 16.179C3.43229 16.669 4.1191 16.8515 4.66706 16.5852C5.23262 16.3101 6.68232 15.837 7.5598 16.1396C7.79573 16.2195 8.1353 16.392 8.37112 16.9727C8.61146 17.5663 8.90587 18.7917 9.21563 20.0882C10.4658 25.3037 11.4568 28.7406 13.7697 28.9862C13.8547 28.995 13.9373 29 14.0189 29C15.5677 29 16.5941 27.4353 17.2401 26.2295C19.5099 21.9969 18.8453 16.2737 18.3105 11.6743C18.0558 9.48365 17.7076 6.48256 18.1518 6.01917C21.2397 6.01917 23.6595 9.46194 23.6595 13.8572C23.6595 16.8298 24.8677 18.9022 26.8135 19.264C27.7407 19.4316 30.0987 19.3931 32.0929 15.2937C33.4732 12.4532 35.2778 11.3342 36.065 11.492C36.5302 11.5787 36.8312 12.2886 36.8312 13.3012C36.8312 14.6677 36.4916 16.0894 36.1631 17.4637C35.5336 20.105 34.8193 23.0983 37.9876 23.8959C41.286 24.7221 43.3597 21.0297 44.8666 18.3293C45.3373 17.4854 45.7828 16.6878 46.1312 16.2737C46.8532 15.415 50.4052 15.4259 52.6872 15.762C53.2903 15.8596 53.8823 15.482 53.9847 14.9309C54.0861 14.3817 53.6717 13.8611 53.0565 13.7704Z" fill="black"/>
</svg>
