<svg width="45" height="45" viewBox="0 0 45 45" fill="none" xmlns="http://www.w3.org/2000/svg">
<path d="M44.3375 40.4145C44.7034 40.4145 45 40.1038 45 39.7205C45 39.3373 44.7034 39.0265 44.3375 39.0265C43.9717 39.0265 43.6751 39.3373 43.6751 39.7205C43.6751 40.1038 43.9717 40.4145 44.3375 40.4145Z" fill="black"/>
<path d="M40.3825 37.0001L30.9399 26.8198C31.4821 25.7148 31.8987 24.5384 32.1765 23.2908L36.4283 22.414V16.8533L32.1765 15.9764C31.8193 14.4079 31.2507 12.9322 30.4837 11.5848L32.9237 7.71372L29.2736 3.78557L25.683 6.40908C24.4332 5.58921 23.0644 4.96184 21.6031 4.58402L20.7897 0H15.632L14.8186 4.58402C13.3639 4.96898 11.9885 5.58921 10.7453 6.40908L7.15473 3.78556L3.50465 7.71372L5.94467 11.5848C5.1776 12.9322 4.60893 14.4079 4.25187 15.9764L0 16.8533V22.414L4.25187 23.2908C4.60232 24.8735 5.1776 26.3492 5.94467 27.6895L3.50465 31.5606L7.15473 35.4959L10.7453 32.8724C11.9885 33.6922 13.3639 34.3053 14.8186 34.6903L15.632 39.2815H20.7897L21.6031 34.6903C22.714 34.4052 23.7786 33.9774 24.7704 33.4213L34.2329 43.6231C35.9348 45.458 38.6788 45.4599 40.3825 43.6231C42.0753 41.7981 42.0753 38.8252 40.3825 37.0001ZM10.5205 19.6407C10.5205 15.0567 13.9656 11.3424 18.2109 11.3424C20.4789 11.3424 22.5156 12.3976 23.9306 14.08C21.6398 13.3482 20.0281 13.8361 19.1631 13.8662L23.4281 18.4715L22.1056 23.9253L17.047 25.3512L12.782 20.7457C12.747 21.7107 12.3407 23.4142 12.9275 25.6649C11.4462 24.1535 10.5205 22.0147 10.5205 19.6407ZM39.4436 42.6179C38.2615 43.8924 36.3537 43.892 35.1719 42.6179C32.5584 39.8002 26.7188 33.5043 24.1092 30.6909L23.719 30.8192C19.1398 32.4365 14.4963 29.0424 13.9788 24.0537L16.6503 26.9338L23.1901 25.0945L24.9027 18.0367L22.2312 15.1565C26.8979 15.7503 29.9853 20.749 28.5065 25.6649L28.3809 26.0784C30.7245 28.6051 36.8089 35.1649 39.4436 38.0054C40.6206 39.2815 40.6206 41.3418 39.4436 42.6179Z" fill="black"/>
<path d="M21.6647 22.7857L22.6487 18.9383L19.9603 16.1218L16.2878 17.1527L15.3037 21.0001L17.9922 23.8166L21.6647 22.7857Z" fill="black"/>
</svg>
