<svg width="45" height="45" viewBox="0 0 45 45" fill="none" xmlns="http://www.w3.org/2000/svg">
<path d="M38.5411 0H2.87209C1.63953 0 0.637115 1.28473 0.637115 2.86394V28.7234V30.6383V38.2979H15.863L14.077 43.6657C13.9782 43.9612 14.0023 44.3006 14.1394 44.5699C14.2774 44.8383 14.5104 45 14.7601 45H26.6531C26.9028 45 27.1358 44.8383 27.2738 44.5699C27.4109 44.3006 27.4349 43.9612 27.3361 43.6657L25.5502 38.2979H40.7761V30.6383V28.7234V2.86394C40.7761 1.28473 39.7736 0 38.5411 0ZM25.5258 43.0851H15.8874L17.48 38.2979H23.9332L25.5258 43.0851ZM39.2895 36.383H24.4232H16.99H2.12374V30.6383H39.2895V36.383ZM2.12374 28.7234V2.86394C2.12374 2.34031 2.45911 1.91489 2.87209 1.91489H38.5411C38.9541 1.91489 39.2895 2.34031 39.2895 2.86394V28.7234H2.12374Z" fill="black"/>
<path d="M26.1222 34.7224C26.9547 34.7224 27.6324 33.8631 27.6324 32.8075C27.6324 31.7519 26.9547 30.8926 26.1222 30.8926C25.2897 30.8926 24.612 31.7519 24.612 32.8075C24.612 33.8631 25.2897 34.7224 26.1222 34.7224Z" fill="black"/>
<path d="M35.741 12.5703C34.9822 12.4113 31.1343 11.7176 29.9021 13.7924C29.5858 14.3253 29.2731 15.1191 28.9118 16.0382C28.1832 17.8914 27.0941 20.6974 26.0698 20.3289C25.4187 20.097 25.4578 19.2079 25.9179 16.473C26.1428 15.1369 26.398 13.6231 26.398 12.1252C26.398 10.1598 25.7564 8.8181 24.6828 8.53482C23.1651 8.12991 21.4536 9.98401 20.3334 13.2519C19.6558 15.2276 18.9199 16.0186 18.4944 15.9054C18.1441 15.8129 17.5873 14.8479 17.5873 12.6525C17.5873 7.32298 15.3544 3.30438 12.393 3.30438C11.9623 3.30438 11.5885 3.51098 11.3105 3.90183C10.5244 5.00797 10.7124 7.30431 10.9971 10.7807C11.3348 14.9022 11.7551 20.0316 10.4219 23.5575C10.0074 24.6524 9.72651 24.9816 9.62473 25.0722C8.95811 24.4691 8.21478 20.0671 7.8925 18.1616C7.66392 16.8087 7.46631 15.6399 7.26945 14.9527C7.00027 14.0121 6.50694 13.3454 5.84403 13.0266C4.45915 12.359 2.83317 13.4324 2.65322 13.5567C2.28669 13.8092 2.15032 14.3898 2.34936 14.8544C2.54698 15.3192 3.00639 15.4922 3.37292 15.2397C3.75123 14.9788 4.72095 14.5301 5.3079 14.8171C5.46571 14.8928 5.69285 15.0565 5.8506 15.6072C6.01136 16.1701 6.20829 17.3322 6.4155 18.5618C7.25173 23.5079 7.91462 26.7674 9.46177 27.0002C9.51858 27.0086 9.57383 27.0134 9.62843 27.0134C10.6644 27.0134 11.351 25.5295 11.7832 24.3859C13.3014 20.3719 12.8568 14.9443 12.4991 10.5824C12.3288 8.50485 12.0958 5.65874 12.393 5.21928C14.4585 5.21928 16.0771 8.48427 16.0771 12.6525C16.0771 15.4716 16.8853 17.437 18.1869 17.7801C18.807 17.9391 20.3843 17.9026 21.7183 14.0149C22.6416 11.3211 23.8487 10.2599 24.3752 10.4095C24.6864 10.4917 24.8877 11.1649 24.8877 12.1252C24.8877 13.4211 24.6606 14.7694 24.4409 16.0728C24.0198 18.5777 23.542 21.4164 25.6613 22.1728C27.8676 22.9564 29.2547 19.4547 30.2627 16.8937C30.5776 16.0934 30.8756 15.337 31.1086 14.9443C31.5916 14.1299 33.9675 14.1402 35.494 14.459C35.8974 14.5515 36.2934 14.1934 36.3619 13.6708C36.4297 13.15 36.1525 12.6562 35.741 12.5703Z" fill="black"/>
</svg>
