<svg width="45" height="45" viewBox="0 0 45 45" fill="none" xmlns="http://www.w3.org/2000/svg">
<path d="M6.2213 0L0 7.50442L6.99072 15.9369V23.4414L10.1124 27.1803L22.533 12.198L19.4333 8.43253H13.212L6.2213 0ZM32.9091 5.22392V9.20153C35.1075 9.20153 36.9761 11.4025 36.9761 14.1072C36.9761 16.812 35.1075 19.013 32.9091 19.013V22.9906C37.8334 22.9906 41.7025 27.8433 41.7025 33.7831V45H45V33.7566C45 27.8698 42.1861 22.7784 38.0752 20.4184C39.4382 18.8008 40.2736 16.5734 40.2736 14.1072C40.2736 9.20153 36.9761 5.22392 32.9091 5.22392ZM21.7636 18.7478L15.5423 26.2522L26.424 39.3783L27.9849 37.4956L32.6453 43.1173L37.3058 45L35.745 39.3783L31.0845 33.7566L32.6453 31.8739L21.7636 18.7478Z" fill="black"/>
</svg>
