<svg width="45" height="45" viewBox="0 0 45 45" fill="none" xmlns="http://www.w3.org/2000/svg">
<path d="M17.4917 0C7.83221 0 0 7.83132 0 17.4898C0 27.1483 7.8322 34.9796 17.4918 34.9796C21.2063 34.9796 24.6511 33.8212 27.4827 31.8479L27.4848 31.8459L40.4575 44.8172C40.6982 45.0579 41.081 45.064 41.328 44.8172L44.8243 41.3212C45.065 41.0805 45.0527 40.6814 44.8222 40.4509L31.8515 27.4817C33.8249 24.6483 34.9835 21.2038 34.9835 17.4898C34.9835 7.83132 27.1513 0 17.4917 0ZM17.4917 30.8644C10.104 30.8644 4.11566 24.8767 4.11566 17.4898C4.11566 10.1029 10.1041 4.11526 17.4917 4.11526C24.8794 4.11526 30.8678 10.1029 30.8678 17.4898C30.8678 24.8767 24.8795 30.8644 17.4917 30.8644Z" fill="black"/>
</svg>
