<svg width="31" height="30" viewBox="0 0 31 30" fill="none" xmlns="http://www.w3.org/2000/svg">
<path d="M28.7727 11.25L26.7102 10.875C26.5227 10.5 26.5227 10.125 26.3352 9.75L27.4602 8.0625L28.3977 6.75L23.5227 1.875L22.2102 2.8125L20.5227 3.9375C20.1477 3.75 19.7727 3.75 19.3977 3.5625L19.0227 1.5L18.6477 0H11.8977L11.5227 1.5L11.1477 3.5625C10.7727 3.75 10.3977 3.75 10.0227 3.9375L8.33521 2.8125L7.02271 2.0625L2.33521 6.75L3.27271 8.0625L4.39771 9.75C4.02271 10.125 4.02271 10.5 3.83521 10.875L1.77271 11.25L0.272705 11.625V18.375L1.77271 18.75L3.83521 19.125C4.02271 19.5 4.0227 19.875 4.2102 20.25L3.08521 21.9375L2.14771 23.25L7.02271 28.125L8.33521 27.1875L10.0227 26.0625C10.3977 26.25 10.7727 26.25 11.1477 26.4375L11.5227 28.5L11.8977 30H18.6477L19.0227 28.5L19.3977 26.4375C19.7727 26.25 20.1477 26.25 20.5227 26.0625L22.2102 27.1875L23.5227 28.125L28.3977 23.25L27.4602 21.9375L26.3352 20.25C26.5227 19.875 26.7102 19.5 26.7102 19.125L28.7727 18.75L30.2727 18.375V11.625L28.7727 11.25ZM28.3977 16.875L25.2102 17.4375C25.0227 18.375 24.6477 19.3125 24.0852 20.25L25.7727 22.875L23.1477 25.5L20.5227 23.8125C19.5852 24.375 18.6477 24.75 17.7102 24.9375L17.1477 28.125H13.3977L12.8352 24.9375C11.8977 24.75 10.9602 24.375 10.0227 23.8125L7.39771 25.5L4.77271 22.875L6.46021 20.25C5.89771 19.3125 5.52271 18.375 5.33521 17.4375L2.14771 16.875V13.125L5.33521 12.5625C5.52271 11.625 5.89771 10.6875 6.46021 9.75L4.58521 7.125L7.21021 4.5L9.83521 6.1875C10.7727 5.625 11.7102 5.25 12.6477 5.0625L13.3977 1.875H17.1477L17.7102 5.0625C18.6477 5.25 19.5852 5.625 20.5227 6.1875L23.1477 4.5L25.7727 7.125L24.0852 9.75C24.6477 10.6875 25.0227 11.625 25.2102 12.5625L28.3977 13.125V16.875Z" fill="#F5F5F5"/>
<path d="M15.2727 8.4375C11.7102 8.4375 8.71021 11.4375 8.71021 15C8.71021 18.5625 11.7102 21.5625 15.2727 21.5625C18.8352 21.5625 21.8352 18.5625 21.8352 15C21.8352 11.4375 18.8352 8.4375 15.2727 8.4375ZM15.2727 19.6875C12.6477 19.6875 10.5852 17.625 10.5852 15C10.5852 12.375 12.6477 10.3125 15.2727 10.3125C17.8977 10.3125 19.9602 12.375 19.9602 15C19.9602 17.625 17.8977 19.6875 15.2727 19.6875Z" fill="#F5F5F5"/>
</svg>
