<svg width="39" height="40" viewBox="0 0 39 40" fill="none" xmlns="http://www.w3.org/2000/svg">
<path d="M36.825 15L34.2163 14.5C33.9792 14 33.9792 13.5 33.742 13L35.1649 10.75L36.3507 9L30.1847 2.5L28.5246 3.75L26.3903 5.25C25.916 5 25.4417 5 24.9674 4.75L24.493 2L24.0187 0H15.4812L15.0069 2L14.5326 4.75C14.0583 5 13.584 5 13.1097 5.25L10.9753 3.75L9.31527 2.75L3.38645 9L4.57222 10.75L5.99513 13C5.52083 13.5 5.52083 14 5.28367 14.5L2.67499 15L0.777771 15.5V24.5L2.67499 25L5.28367 25.5C5.52083 26 5.52083 26.5 5.75798 27L4.33506 29.25L3.1493 31L9.31527 37.5L10.9753 36.25L13.1097 34.75C13.584 35 14.0583 35 14.5326 35.25L15.0069 38L15.4812 40H24.0187L24.493 38L24.9674 35.25C25.4417 35 25.916 35 26.3903 34.75L28.5246 36.25L30.1847 37.5L36.3507 31L35.1649 29.25L33.742 27C33.9792 26.5 34.2163 26 34.2163 25.5L36.825 25L38.7222 24.5V15.5L36.825 15ZM36.3507 22.5L32.3191 23.25C32.0819 24.5 31.6076 25.75 30.8962 27L33.0305 30.5L29.7104 34L26.3903 31.75C25.2045 32.5 24.0187 33 22.833 33.25L22.1215 37.5H17.3785L16.667 33.25C15.4812 33 14.2955 32.5 13.1097 31.75L9.78958 34L6.46944 30.5L8.60381 27C7.89235 25.75 7.41805 24.5 7.1809 23.25L3.1493 22.5V17.5L7.1809 16.75C7.41805 15.5 7.89235 14.25 8.60381 13L6.23228 9.5L9.55242 6L12.8726 8.25C14.0583 7.5 15.2441 7 16.4299 6.75L17.3785 2.5H22.1215L22.833 6.75C24.0187 7 25.2045 7.5 26.3903 8.25L29.7104 6L33.0305 9.5L30.8962 13C31.6076 14.25 32.0819 15.5 32.3191 16.75L36.3507 17.5V22.5Z" fill="#F5F5F5"/>
<path d="M19.75 11.25C15.2441 11.25 11.4496 15.25 11.4496 20C11.4496 24.75 15.2441 28.75 19.75 28.75C24.2559 28.75 28.0503 24.75 28.0503 20C28.0503 15.25 24.2559 11.25 19.75 11.25ZM19.75 26.25C16.4299 26.25 13.8212 23.5 13.8212 20C13.8212 16.5 16.4299 13.75 19.75 13.75C23.0701 13.75 25.6788 16.5 25.6788 20C25.6788 23.5 23.0701 26.25 19.75 26.25Z" fill="#F5F5F5"/>
</svg>
