<svg width="20" height="19" viewBox="0 0 20 19" fill="none" xmlns="http://www.w3.org/2000/svg">
<path d="M19.3802 16.1685L14.6428 12.3408C14.1531 11.9221 13.6293 11.7299 13.2062 11.7484C14.3245 10.504 15 8.88953 15 7.12502C15 3.18997 11.6422 0 7.50002 0C3.3579 0 0 3.18997 0 7.12502C0 11.0601 3.35786 14.25 7.50002 14.25C9.35741 14.25 11.0569 13.6083 12.3668 12.5459C12.3472 12.9478 12.5496 13.4454 12.9903 13.9106L17.0195 18.4111C17.7094 19.1393 18.8363 19.2007 19.5237 18.5476C20.2112 17.8945 20.1467 16.8239 19.3802 16.1685ZM7.50002 11.875C4.73861 11.875 2.50001 9.74832 2.50001 7.12502C2.50001 4.50167 4.73861 2.37501 7.50002 2.37501C10.2614 2.37501 12.5 4.50167 12.5 7.12502C12.5 9.74832 10.2615 11.875 7.50002 11.875Z" fill="white"/>
</svg>
